<svg width="40" height="40" viewBox="0 0 40 40" fill="none" xmlns="http://www.w3.org/2000/svg">
<path d="M30.7344 0.734375C31.7109 -0.242188 33.2969 -0.242188 34.2734 0.734375L39.2734 5.73438C40.25 6.71094 40.25 8.29687 39.2734 9.27344C38.3516 10.1953 36.875 10.25 35.8984 9.42187L35.1563 10.1641L31.3438 13.9766C30.625 14.6953 30.4453 15.7656 30.6719 16.7578C31.4063 19.9531 30.5234 23.4453 28.0312 25.9375L15.4141 38.5391C13.4609 40.4922 10.2969 40.4922 8.34375 38.5391L1.46875 31.6641C-0.484375 29.7109 -0.484375 26.5469 1.46875 24.5937L14.0781 11.9766C16.5703 9.48438 20.0625 8.60937 23.2578 9.33594C24.2422 9.5625 25.3203 9.375 26.0313 8.66406L29.8438 4.85156L30.5859 4.10937C29.7578 3.125 29.8047 1.65625 30.7344 0.734375ZM7.75781 27.1328L12.8672 32.2422C13.3516 32.7266 14.1484 32.7266 14.6328 32.2422L22.2422 24.6328C22.7266 24.1484 22.7266 23.3516 22.2422 22.8672L17.1328 17.7578C16.6484 17.2734 15.8516 17.2734 15.3672 17.7578L7.75781 25.3672C7.27344 25.8516 7.27344 26.6484 7.75781 27.1328Z" fill="#FB9062"/>
</svg>
