<svg width="48" height="38" viewBox="0 0 48 38" fill="none" xmlns="http://www.w3.org/2000/svg">
<path d="M15.735 6.29375C16.6725 2.59766 20.0325 0 23.8875 0H24C28.6425 0 32.4 3.71836 32.4 8.3125V8.78008C32.4 11.4891 31.065 14.0348 28.815 15.5934L28.1925 16.0238L45.615 27.9953C47.1075 29.0195 48 30.7043 48 32.5078C48 35.5434 45.5175 38 42.45 38H5.55C2.4825 38 0 35.5434 0 32.5078C0 30.7117 0.8925 29.0195 2.385 27.9953L22.62 14.0867L22.6275 14.0793L26.0625 11.7043C27.0225 11.0363 27.6 9.94531 27.6 8.7875V8.3125C27.6 6.3457 25.9875 4.75 24 4.75H23.8875C22.2375 4.75 20.7975 5.86328 20.3925 7.45156L20.325 7.70391C20.0025 8.97305 18.6975 9.75234 17.415 9.4332C16.1325 9.11406 15.345 7.82266 15.6675 6.55352L15.735 6.30117V6.29375ZM24 18.9258L5.1225 31.8918C4.92 32.0328 4.8 32.2555 4.8 32.5004C4.8 32.9086 5.1375 33.2426 5.55 33.2426H42.45C42.8625 33.2426 43.2 32.9086 43.2 32.5004C43.2 32.2555 43.08 32.0254 42.8775 31.8918L24 18.9258Z" fill="#FB9062"/>
</svg>
