<svg width="40" height="46" viewBox="0 0 40 46" fill="none" xmlns="http://www.w3.org/2000/svg">
<path d="M34.2857 4.29545C34.2857 6.16577 33.0893 7.75866 31.4286 8.34929V10.0227V15.75C31.4286 22.0768 26.3125 27.2045 20 27.2045C13.6875 27.2045 8.57143 22.0768 8.57143 15.75V10.0227V8.34929C6.91071 7.75866 5.71429 6.16577 5.71429 4.29545C5.71429 1.92401 7.63393 0 10 0C11.2768 0 12.4286 0.563778 13.2143 1.45866C14 0.563778 15.1518 0 16.4286 0C17.9196 0 19.2321 0.760653 20 1.92401C20.7679 0.760653 22.0804 0 23.5714 0C24.8482 0 26 0.563778 26.7857 1.45866C27.5714 0.563778 28.7232 0 30 0C32.3661 0 34.2857 1.92401 34.2857 4.29545ZM27.1429 15.75V14.3182H12.8571V15.75C12.8571 19.7054 16.0536 22.9091 20 22.9091C23.9464 22.9091 27.1429 19.7054 27.1429 15.75ZM15.9286 30.4798C16.5982 30.6499 16.6607 31.5805 16.0179 31.8401L12.1607 33.3882C9.99107 34.2562 8.57143 36.3592 8.57143 38.7038V42.9545V45.1023V45.8182H7.85714H5.71429H2.28571C1.02679 45.8182 0 44.7891 0 43.5273C0 38.2653 3.36607 33.7909 8.0625 32.1622C8.35714 32.0548 8.57143 31.7774 8.57143 31.4642V29.5491C8.57143 29.0838 9.00893 28.7437 9.45536 28.8511L15.9286 30.4709V30.4798ZM31.4286 45.8182H14.2857H12.1429H11.4286V45.1023V42.9545V38.7038C11.4286 37.5315 12.1429 36.4756 13.2232 36.046L30.4464 29.1375C30.9196 28.9496 31.4286 29.2986 31.4286 29.7997V31.4642C31.4286 31.7774 31.6339 32.0548 31.9375 32.1622C36.6339 33.7909 40 38.2653 40 43.5273C40 44.7891 38.9732 45.8182 37.7143 45.8182H31.4286ZM20 38.6591C20 38.2793 19.8495 37.9152 19.5816 37.6466C19.3137 37.3781 18.9503 37.2273 18.5714 37.2273C18.1925 37.2273 17.8292 37.3781 17.5613 37.6466C17.2934 37.9152 17.1429 38.2793 17.1429 38.6591C17.1429 39.0388 17.2934 39.403 17.5613 39.6715C17.8292 39.9401 18.1925 40.0909 18.5714 40.0909C18.9503 40.0909 19.3137 39.9401 19.5816 39.6715C19.8495 39.403 20 39.0388 20 38.6591ZM27.1429 40.0909C27.5217 40.0909 27.8851 39.9401 28.153 39.6715C28.4209 39.403 28.5714 39.0388 28.5714 38.6591C28.5714 38.2793 28.4209 37.9152 28.153 37.6466C27.8851 37.3781 27.5217 37.2273 27.1429 37.2273C26.764 37.2273 26.4006 37.3781 26.1327 37.6466C25.8648 37.9152 25.7143 38.2793 25.7143 38.6591C25.7143 39.0388 25.8648 39.403 26.1327 39.6715C26.4006 39.9401 26.764 40.0909 27.1429 40.0909Z" fill="#FB9062"/>
</svg>
