<svg width="40" height="40" viewBox="0 0 40 40" fill="none" xmlns="http://www.w3.org/2000/svg">
<path d="M0 20C0 14.6957 2.10714 9.60859 5.85786 5.85786C9.60859 2.10714 14.6957 0 20 0C25.3043 0 30.3914 2.10714 34.1421 5.85786C37.8929 9.60859 40 14.6957 40 20C40 25.3043 37.8929 30.3914 34.1421 34.1421C30.3914 37.8929 25.3043 40 20 40C14.6957 40 9.60859 37.8929 5.85786 34.1421C2.10714 30.3914 0 25.3043 0 20ZM13.75 26.25V30H15.625H20H24.375H26.25V26.25H24.375H21.875V11.875V10H20H19.375H18.8906L18.4687 10.2344L13.75 12.8516V17.1406L14.6641 16.6328L18.125 14.7109V26.25H15.625H13.75Z" fill="#FB9062"/>
</svg>
