<svg width="46" height="40" viewBox="0 0 46 40" fill="none" xmlns="http://www.w3.org/2000/svg">
<path d="M27.8695 8.14844L25.1572 10.6016V2.5C25.1572 1.11719 24.033 0 22.6415 0C21.25 0 20.1258 1.11719 20.1258 2.5V10.6016L17.4135 8.15625C16.3836 7.22656 14.7956 7.30469 13.8601 8.32812C12.9245 9.35156 13.0031 10.9297 14.033 11.8594L20.9513 18.1094C21.9104 18.9766 23.3726 18.9766 24.3396 18.1094L31.2579 11.8594C32.2877 10.9297 32.3585 9.35156 31.4308 8.32812C30.5031 7.30469 28.9072 7.23438 27.8774 8.15625L27.8695 8.14844ZM31.6981 18.5234C31.6195 18.1094 31.3365 17.7578 30.9434 17.5937C30.5503 17.4297 30.1022 17.4766 29.7484 17.7188L22.6415 22.5859L15.5425 17.7188C15.1887 17.4766 14.7406 17.4297 14.3475 17.5937C13.9544 17.7578 13.6714 18.1094 13.5928 18.5234L12.0283 26.9531L3.5456 28.5078C3.12893 28.5859 2.77516 28.8672 2.61006 29.2578C2.44497 29.6484 2.49214 30.0938 2.73585 30.4453L5.03145 33.75H13.3097C14.8035 30.0859 18.4198 27.5 22.6415 27.5C26.8632 27.5 30.4796 30.0859 31.9733 33.75H40.2516L42.5472 30.4453C42.7909 30.0938 42.838 29.6484 42.673 29.2578C42.5079 28.8672 42.1541 28.5859 41.7374 28.5078L33.2547 26.9531L31.6903 18.5234H31.6981ZM0 38.125C0 39.1641 0.841195 40 1.88679 40H43.3962C44.4418 40 45.283 39.1641 45.283 38.125C45.283 37.0859 44.4418 36.25 43.3962 36.25H1.88679C0.841195 36.25 0 37.0859 0 38.125Z" fill="#FB9062"/>
</svg>
